<svg width="52" height="53" viewBox="0 0 52 53" fill="none" xmlns="http://www.w3.org/2000/svg">
<path d="M26.197 52.8398C40.2803 52.8398 51.697 41.1992 51.697 26.8398C51.697 12.4804 40.2803 0.839844 26.197 0.839844C12.1138 0.839844 0.697021 12.4804 0.697021 26.8398C0.697021 41.1992 12.1138 52.8398 26.197 52.8398Z" fill="#BFFFBC"/>
<path d="M25.6501 37.884H25.5821H24.8581H24.7901C24.5328 37.8939 24.2784 37.8273 24.0591 37.6926C23.8398 37.5578 23.6654 37.361 23.5581 37.127L22.8961 35.415C22.2751 33.83 20.8831 32.884 19.4101 31.883C17.1211 30.331 14.7581 28.726 14.7581 24.541C14.7581 19.637 19.4211 15.647 25.1531 15.647C30.8851 15.647 35.5481 19.637 35.5481 24.541C35.5481 28.717 33.2201 30.322 30.9691 31.874C29.5141 32.874 28.1401 33.825 27.5431 35.415L26.8811 37.127C26.7738 37.3608 26.5996 37.5575 26.3804 37.6923C26.1613 37.827 25.9071 37.8937 25.6501 37.884ZM25.1501 21.206C24.1935 21.1401 23.2494 21.4528 22.5213 22.0767C21.7932 22.7005 21.3395 23.5856 21.2581 24.541C21.3395 25.4978 21.7943 26.3842 22.5241 27.0083C23.254 27.6324 24.2002 27.9441 25.1581 27.876C26.1637 27.8886 27.1409 27.5422 27.9141 26.899C28.2652 26.6134 28.5494 26.2542 28.7466 25.8468C28.9438 25.4393 29.0491 24.9936 29.0551 24.541C28.9736 23.5838 28.5185 22.6971 27.7883 22.0729C27.058 21.4488 26.1113 21.1373 25.1531 21.206H25.1501Z" fill="#3F8B14"/>
</svg>
