<svg width="51" height="53" viewBox="0 0 51 53" fill="none" xmlns="http://www.w3.org/2000/svg">
<path d="M25.584 52.8398C39.3911 52.8398 50.584 41.1992 50.584 26.8398C50.584 12.4804 39.3911 0.839844 25.584 0.839844C11.7769 0.839844 0.583984 12.4804 0.583984 26.8398C0.583984 41.1992 11.7769 52.8398 25.584 52.8398Z" fill="#DFF5F0"/>
<path d="M31.328 36.8399H30.472C28.3606 36.8354 26.2758 36.3688 24.364 35.4729L23.789 35.1949C19.9405 33.4512 16.6854 30.6208 14.424 27.0519L14.104 26.5519C13.1216 24.9702 12.5956 23.1478 12.584 21.2859L12.584 20.5399C12.5893 20.2387 12.6594 19.9421 12.7895 19.6703C12.9196 19.3986 13.1067 19.158 13.338 18.9649L15.497 17.0869C15.6869 16.9248 15.9293 16.837 16.179 16.8399C16.2191 16.8398 16.2591 16.8418 16.299 16.8459C16.4389 16.8593 16.5743 16.9027 16.6959 16.9731C16.8176 17.0435 16.9226 17.1393 17.004 17.2539L19.884 21.5399C20.0247 21.7484 20.0822 22.002 20.0452 22.2508C20.0082 22.4996 19.8793 22.7254 19.684 22.8839L17.269 24.9839C17.1726 25.06 17.1076 25.169 17.0864 25.29C17.0652 25.411 17.0892 25.5355 17.154 25.6399L17.601 26.3729C19.3008 29.0458 21.7427 31.1656 24.628 32.4729L25.471 32.8729C25.5651 32.9159 25.6675 32.9381 25.771 32.9379C25.9376 32.9397 26.0993 32.8811 26.226 32.7729L28.641 30.6729C28.8929 30.4575 29.2145 30.3409 29.546 30.3449C29.7681 30.3445 29.9872 30.3959 30.186 30.4949L35.118 32.9949C35.2392 33.0527 35.3449 33.1387 35.4261 33.2457C35.5074 33.3527 35.5618 33.4776 35.585 33.6099C35.6024 33.7403 35.5863 33.8731 35.5382 33.9956C35.4901 34.118 35.4115 34.2262 35.31 34.3099L33.15 36.1879C32.6401 36.616 31.9937 36.8474 31.328 36.8399ZM34.956 25.7079H33.666C33.5155 25.7159 33.3672 25.6682 33.2496 25.574C33.1319 25.4798 33.0531 25.3456 33.028 25.1969C32.8612 23.5612 32.0638 22.0547 30.805 20.9969C29.4465 19.8465 27.7511 19.1685 25.974 19.0649C25.82 19.0687 25.6704 19.013 25.5563 18.9095C25.4422 18.806 25.3722 18.6626 25.361 18.5089V17.3979C25.3608 17.3195 25.3779 17.242 25.4111 17.171C25.4443 17.0999 25.4927 17.0371 25.553 16.9869C25.6813 16.8907 25.8376 16.839 25.998 16.8399H26.064C28.4712 16.9577 30.7726 17.8656 32.612 19.4229C34.3167 20.854 35.3853 22.902 35.584 25.1189C35.5884 25.1972 35.5758 25.2755 35.5472 25.3485C35.5185 25.4215 35.4745 25.4875 35.418 25.5419C35.2886 25.6504 35.1248 25.7093 34.956 25.7079ZM29.829 25.7079H28.529C28.3912 25.7144 28.2553 25.6741 28.1435 25.5934C28.0316 25.5128 27.9504 25.3967 27.913 25.2639C27.7845 24.8029 27.5215 24.3907 27.1576 24.0798C26.7937 23.769 26.3454 23.5737 25.87 23.5189C25.7333 23.5055 25.6061 23.4429 25.512 23.3429C25.4178 23.2429 25.3631 23.1122 25.358 22.9749V21.8639C25.3586 21.7815 25.3786 21.7004 25.4163 21.6271C25.454 21.5538 25.5083 21.4904 25.575 21.4419H25.6C25.7289 21.3384 25.8896 21.2826 26.055 21.2839H26.111C27.1787 21.4134 28.1843 21.856 29.001 22.5559C29.7639 23.1999 30.2778 24.0902 30.454 25.0729C30.4646 25.1537 30.4563 25.2359 30.4298 25.3129C30.4032 25.39 30.3591 25.4598 30.301 25.5169C30.1744 25.64 30.0046 25.7086 29.828 25.7079H29.829Z" fill="#00B4C1"/>
</svg>
