<svg width="9" height="5" viewBox="0 0 9 5" fill="none" xmlns="http://www.w3.org/2000/svg">
<path d="M1.04712 1.35519C1.00569 1.31468 0.972777 1.2663 0.950306 1.2129C0.927835 1.15949 0.91626 1.10213 0.91626 1.04419C0.91626 0.986251 0.927835 0.928894 0.950306 0.875488C0.972777 0.822082 1.00569 0.773703 1.04712 0.733192L1.21812 0.564192C1.25887 0.521705 1.308 0.488128 1.36239 0.465581C1.41678 0.443033 1.47525 0.432005 1.53412 0.433192H7.76311C7.82141 0.432291 7.87926 0.443364 7.9331 0.465725C7.98694 0.488086 8.03561 0.521259 8.07612 0.563192L8.25011 0.733192C8.29093 0.773636 8.32333 0.821766 8.34544 0.874803C8.36755 0.927839 8.37894 0.984731 8.37894 1.04219C8.37894 1.09965 8.36755 1.15654 8.34544 1.20958C8.32333 1.26262 8.29093 1.31075 8.25011 1.35119L4.95012 4.65119C4.91103 4.69275 4.86385 4.72587 4.81148 4.74851C4.75911 4.77115 4.70267 4.78283 4.64562 4.78283C4.58856 4.78283 4.53212 4.77115 4.47975 4.74851C4.42738 4.72587 4.3802 4.69275 4.34112 4.65119L1.04712 1.35519Z" fill="#364153"/>
</svg>
