<svg xmlns="http://www.w3.org/2000/svg" width="25.221" height="30.916" viewBox="0 0 25.221 30.916">
  <path id="Icon_color" data-name="Icon color" d="M24.32,30.916H.9a.907.907,0,0,1-.9-.91V28.188a.906.906,0,0,1,.9-.908H24.32a.906.906,0,0,1,.9.908v1.818A.907.907,0,0,1,24.32,30.916ZM12.611,23.644a.867.867,0,0,1-.631-.275L1.55,12.838a.911.911,0,0,1,0-1.29l.36-.365a.877.877,0,0,1,.631-.272H7.205V.91a.907.907,0,0,1,.9-.91h9.008a.906.906,0,0,1,.9.91v10H22.68a.883.883,0,0,1,.631.272l.36.365a.915.915,0,0,1,0,1.29L13.241,23.369A.867.867,0,0,1,12.611,23.644Z" fill="#919191"/>
</svg>
