<svg width="53" height="53" viewBox="0 0 53 53" fill="none" xmlns="http://www.w3.org/2000/svg">
<path d="M26.9419 52.8398C41.3013 52.8398 52.9419 41.1992 52.9419 26.8398C52.9419 12.4804 41.3013 0.839844 26.9419 0.839844C12.5825 0.839844 0.941895 12.4804 0.941895 26.8398C0.941895 41.1992 12.5825 52.8398 26.9419 52.8398Z" fill="#FFEAE4"/>
<path d="M39.2361 33.8401H27.0841C26.8604 33.8435 26.6392 33.7925 26.4394 33.6917C26.2396 33.5909 26.0673 33.4431 25.9371 33.2611C25.8169 33.0896 25.748 32.8874 25.7382 32.6781C25.7285 32.4689 25.7784 32.2611 25.8821 32.0791L27.2321 29.7721C27.5983 29.1581 28.1186 28.6505 28.7415 28.2997C29.3644 27.9488 30.0682 27.767 30.7831 27.7721H35.5371C36.2633 27.7551 36.9809 27.9314 37.6166 28.2828C38.2523 28.6342 38.7833 29.1482 39.1551 29.7721L40.4381 32.0791C40.5425 32.2609 40.5928 32.4688 40.5831 32.6782C40.5733 32.8876 40.504 33.0898 40.3831 33.2611C40.252 33.4422 40.0795 33.5893 39.8799 33.69C39.6804 33.7907 39.4596 33.8422 39.2361 33.8401ZM23.2751 33.8401H14.9311C14.7074 33.8435 14.4862 33.7925 14.2864 33.6917C14.0866 33.5909 13.9143 33.4431 13.7841 33.2611C13.6641 33.0895 13.5952 32.8873 13.5854 32.6781C13.5757 32.4689 13.6255 32.2612 13.7291 32.0791L15.6731 28.5701C16.0433 27.9424 16.5742 27.4248 17.211 27.0704C17.8478 26.7161 18.5675 26.5379 19.2961 26.5541H26.7591C25.9276 27.0953 25.2377 27.8277 24.7471 28.6901L23.4641 30.9861C23.2228 31.418 23.0807 31.8982 23.048 32.3918C23.0153 32.8855 23.0929 33.3802 23.2751 33.8401ZM33.1601 25.3401H33.1471C32.2729 25.3448 31.4271 25.0297 30.7691 24.4541C30.4627 24.1854 30.2165 23.8549 30.0468 23.4844C29.877 23.1139 29.7875 22.7117 29.7841 22.3041C29.8324 21.455 30.2144 20.6595 30.8468 20.0908C31.4791 19.5221 32.3107 19.2264 33.1601 19.2681C34.0094 19.2267 34.8406 19.5225 35.4728 20.0911C36.105 20.6598 36.4868 21.4552 36.5351 22.3041C36.4868 23.1529 36.1051 23.9481 35.4732 24.5168C34.8412 25.0854 34.0092 25.3813 33.1601 25.3401ZM23.0331 24.1261C22.014 24.1755 21.0167 23.8203 20.2584 23.1378C19.5 22.4553 19.042 21.5008 18.9841 20.4821C19.0425 19.4639 19.5007 18.5099 20.259 17.8278C21.0173 17.1457 22.0144 16.7907 23.0331 16.8401C24.0523 16.7899 25.0499 17.1446 25.8087 17.8268C26.5676 18.509 27.026 19.4634 27.0841 20.4821C27.0262 21.5011 26.5679 22.4559 25.8091 23.1385C25.0503 23.8211 24.0525 24.1761 23.0331 24.1261Z" fill="#E91515"/>
</svg>
