<svg width="51" height="53" viewBox="0 0 51 53" fill="none" xmlns="http://www.w3.org/2000/svg">
<path d="M25.6909 52.8398C39.498 52.8398 50.6909 41.1992 50.6909 26.8398C50.6909 12.4804 39.498 0.839844 25.6909 0.839844C11.8838 0.839844 0.690918 12.4804 0.690918 26.8398C0.690918 41.1992 11.8838 52.8398 25.6909 52.8398Z" fill="#DFF5F0"/>
<path d="M24.987 17.4278V25.2838L20.052 22.8168L13.657 25.9878V38.4128H37.723V17.4258L31.332 14.3398L24.987 17.4278ZM20.756 37.0018H19.345V35.5918H20.755L20.756 37.0018ZM22.166 37.0018V34.1818H17.935V37.0028H15.067V26.8618L20.049 24.3918L24.986 26.8608V37.0018H22.166ZM32.038 37.0018H30.623V35.5918H32.033L32.038 37.0018ZM36.316 18.3118V37.0018H33.449V34.1818H29.218V37.0028H26.397V18.3098L31.334 15.9098L36.316 18.3118Z" fill="#00B4C1"/>
<path d="M27.8069 20.0786H29.2169V21.4886H27.8069V20.0786Z" fill="#00B4C1"/>
<path d="M33.449 20.0786H34.859V21.4886H33.449V20.0786Z" fill="#00B4C1"/>
<path d="M30.6279 20.0786H32.0379V21.4886H30.6279V20.0786Z" fill="#00B4C1"/>
<path d="M27.8069 22.8989H29.2169V24.3089H27.8069V22.8989Z" fill="#00B4C1"/>
<path d="M30.6279 22.8989H32.0379V24.3089H30.6279V22.8989Z" fill="#00B4C1"/>
<path d="M33.449 22.8989H34.859V24.3089H33.449V22.8989Z" fill="#00B4C1"/>
<path d="M27.8069 25.7197H29.2169V27.1297H27.8069V25.7197Z" fill="#00B4C1"/>
<path d="M33.449 25.7197H34.859V27.1297H33.449V25.7197Z" fill="#00B4C1"/>
<path d="M30.6279 25.7197H32.0379V27.1297H30.6279V25.7197Z" fill="#00B4C1"/>
<path d="M27.8069 28.541H29.2169V29.951H27.8069V28.541Z" fill="#00B4C1"/>
<path d="M30.6279 28.541H32.0379V29.951H30.6279V28.541Z" fill="#00B4C1"/>
<path d="M33.449 28.541H34.859V29.951H33.449V28.541Z" fill="#00B4C1"/>
<path d="M27.8069 31.3608H29.2169V32.7708H27.8069V31.3608Z" fill="#00B4C1"/>
<path d="M33.449 31.3608H34.859V32.7708H33.449V31.3608Z" fill="#00B4C1"/>
<path d="M30.6279 31.3608H32.0379V32.7708H30.6279V31.3608Z" fill="#00B4C1"/>
<path d="M16.5249 28.541H17.9349V29.951H16.5249V28.541Z" fill="#00B4C1"/>
<path d="M19.345 28.541H20.755V29.951H19.345V28.541Z" fill="#00B4C1"/>
<path d="M22.166 28.541H23.576V29.951H22.166V28.541Z" fill="#00B4C1"/>
<path d="M16.5249 31.3608H17.9349V32.7708H16.5249V31.3608Z" fill="#00B4C1"/>
<path d="M22.166 31.3608H23.576V32.7708H22.166V31.3608Z" fill="#00B4C1"/>
<path d="M19.345 31.3608H20.755V32.7708H19.345V31.3608Z" fill="#00B4C1"/>
</svg>
