<svg xmlns="http://www.w3.org/2000/svg" width="34.721" height="36.669" viewBox="0 0 34.721 36.669">
  <g id="bar-chart" transform="translate(-13.601)">
    <g id="Group_243" data-name="Group 243" transform="translate(13.601 10.503)">
      <g id="Group_242" data-name="Group 242" transform="translate(0)">
        <path id="Path_351" data-name="Path 351" d="M47.606,171.388H46.035V148.579a1.928,1.928,0,0,0-1.925-1.925H40.6a1.927,1.927,0,0,0-1.925,1.925v22.808H34.685V158.913a1.927,1.927,0,0,0-1.925-1.925H29.248a1.927,1.927,0,0,0-1.925,1.925v12.474H23.335v-6.46A1.927,1.927,0,0,0,21.409,163H17.9a1.927,1.927,0,0,0-1.925,1.925v6.46H14.317a.716.716,0,0,0,0,1.432H47.606a.716.716,0,0,0,0-1.432Zm-25.7,0h-4.5v-6.46a.493.493,0,0,1,.493-.493h3.511a.493.493,0,0,1,.493.493v6.46Zm11.35,0h-4.5V158.913a.493.493,0,0,1,.493-.493H32.76a.493.493,0,0,1,.493.493Zm11.35,0h-4.5V148.579a.493.493,0,0,1,.493-.493H44.11a.493.493,0,0,1,.493.493v22.808Z" transform="translate(-13.601 -146.654)" fill="#f2f2f2"/>
      </g>
    </g>
    <g id="Group_245" data-name="Group 245" transform="translate(19.742)">
      <g id="Group_244" data-name="Group 244">
        <path id="Path_352" data-name="Path 352" d="M125.638.753A.714.714,0,0,0,124.886,0l-.035,0h-4.333a.716.716,0,0,0,0,1.432h2.676l-7.08,7.08-2.67-2.67a.716.716,0,0,0-1.013,0L99.556,18.718a.716.716,0,0,0,1.013,1.013L112.937,7.362l2.67,2.67a.716.716,0,0,0,1.013,0l7.587-7.586V4.867a.716.716,0,1,0,1.432,0V.788C125.639.776,125.638.765,125.638.753Z" transform="translate(-99.346)" fill="#f2f2f2"/>
      </g>
    </g>
    <g id="Group_247" data-name="Group 247" transform="translate(17.328 21.007)">
      <g id="Group_246" data-name="Group 246" transform="translate(0)">
        <circle id="Ellipse_56" data-name="Ellipse 56" cx="0.716" cy="0.716" r="0.716" fill="#f2f2f2"/>
      </g>
    </g>
  </g>
</svg>
