<svg xmlns="http://www.w3.org/2000/svg" width="16.1" height="24.258" viewBox="0 0 16.1 24.258">
  <g id="man" transform="translate(-78.028 0)">
    <path id="Path_353" data-name="Path 353" d="M94.128,21.788V23.84a.418.418,0,0,1-.418.418H78.446a.418.418,0,0,1-.418-.418V21.788a3.9,3.9,0,0,1,3.9-3.9,2.164,2.164,0,0,0,1.817-.986,2.457,2.457,0,0,0,.348-1.532l.008-.019a5.176,5.176,0,0,1-3.2-4.783v-.164A1.289,1.289,0,0,1,79.6,9.123V6.95a7.236,7.236,0,0,1,1.945-5.281C83.781-.491,87.332-.314,89.9.841a.1.1,0,0,1,0,.192l-.671.276a.1.1,0,0,0,.029.2l.326.035A5.276,5.276,0,0,1,93.49,3.968a.112.112,0,0,1-.014.129,3.163,3.163,0,0,0-.864,2.173V9.123a1.283,1.283,0,0,1-1.283,1.283h-.076v.164a5.176,5.176,0,0,1-3.2,4.783l.008.019a2.456,2.456,0,0,0,.348,1.532,2.164,2.164,0,0,0,1.817.986,3.9,3.9,0,0,1,3.9,3.9Z" transform="translate(0 0)" fill="#ffdfba"/>
    <path id="Path_354" data-name="Path 354" d="M94.128,328.25V330.3a.418.418,0,0,1-.418.418H78.446a.418.418,0,0,1-.418-.418V328.25a3.9,3.9,0,0,1,3.9-3.9,2.164,2.164,0,0,0,1.817-.986,3.588,3.588,0,0,0,4.668,0,2.164,2.164,0,0,0,1.817.986A3.9,3.9,0,0,1,94.128,328.25Z" transform="translate(0 -306.462)" fill="#fe4f60"/>
    <path id="Path_355" data-name="Path 355" d="M121.883,3.969a.111.111,0,0,1-.014.129,3.164,3.164,0,0,0-.863,2.173V9.123a1.285,1.285,0,0,1-1.359,1.283V7.177a2.509,2.509,0,0,0-2.509-2.509h-5.332A2.509,2.509,0,0,0,109.3,7.177v3.229a1.289,1.289,0,0,1-1.307-1.283V6.951a7.236,7.236,0,0,1,1.945-5.281c2.24-2.159,5.791-1.983,8.363-.827a.1.1,0,0,1,0,.192l-.671.276a.1.1,0,0,0,.029.2l.326.035a5.274,5.274,0,0,1,3.906,2.423Z" transform="translate(-28.393 -0.001)" fill="#42434d"/>
    <path id="Path_356" data-name="Path 356" d="M143.378,95.188a5.176,5.176,0,1,1-10.35-.164V91.8a2.509,2.509,0,0,1,2.509-2.509h5.332a2.509,2.509,0,0,1,2.509,2.509Z" transform="translate(-52.125 -84.619)" fill="#ffebd2"/>
    <path id="Path_357" data-name="Path 357" d="M282.7,431.892h-1.255a.418.418,0,1,1,0-.836H282.7a.418.418,0,0,1,0,.836Z" transform="translate(-192.388 -408.523)" fill="#fff"/>
    <path id="Path_358" data-name="Path 358" d="M137.031,113.364a.826.826,0,0,1-.751,1.464,5.176,5.176,0,0,1-3.252-4.806V106.63a2.5,2.5,0,0,1,.44-1.42.618.618,0,0,1,1.128.375v3.393A5.137,5.137,0,0,0,137.031,113.364Z" transform="translate(-52.125 -99.453)" fill="#fff3e4"/>
    <path id="Path_359" data-name="Path 359" d="M196.989,294.564a5.189,5.189,0,0,1-4.091,0,3.239,3.239,0,0,0,.059-.858l.008-.019a5.186,5.186,0,0,0,3.957,0l.008.019A3.238,3.238,0,0,0,196.989,294.564Z" transform="translate(-108.865 -278.334)" fill="#ffd6a6"/>
    <path id="Path_360" data-name="Path 360" d="M84.033,325.615a2.126,2.126,0,0,1-.623.1,3.909,3.909,0,0,0-3.919,3.885v.393a.732.732,0,0,1-.732.732h-.314a.418.418,0,0,1-.418-.418V328.25a3.9,3.9,0,0,1,3.9-3.9,2.164,2.164,0,0,0,1.817-.986,3.617,3.617,0,0,0,.5.357,1.044,1.044,0,0,1-.208,1.892Z" transform="translate(0 -306.462)" fill="#ff6d7a"/>
    <path id="Path_361" data-name="Path 361" d="M258.081,325.615a2.126,2.126,0,0,0,.623.1,3.909,3.909,0,0,1,3.919,3.885v.393a.732.732,0,0,0,.732.732h.314a.418.418,0,0,0,.418-.418V328.25a3.9,3.9,0,0,0-3.9-3.9,2.164,2.164,0,0,1-1.817-.986,3.615,3.615,0,0,1-.5.357,1.044,1.044,0,0,0,.208,1.892Z" transform="translate(-169.958 -306.462)" fill="#e84857"/>
    <path id="Path_362" data-name="Path 362" d="M118.293,1.034c-.615.253-.7.309-.915.276-3.433-.532-6.445.888-7.468,4.223h0a2.5,2.5,0,0,0-.614,1.643V9.138a.654.654,0,1,1-1.307-.015V6.95a7.236,7.236,0,0,1,1.945-5.281c2.24-2.159,5.791-1.983,8.363-.827a.1.1,0,0,1,0,.192Z" transform="translate(-28.393 0)" fill="#4d4e59"/>
  </g>
</svg>
