<svg xmlns="http://www.w3.org/2000/svg" width="23.002" height="23" viewBox="0 0 23.002 23">
  <path id="Icon_color" data-name="Icon color" d="M21.466,23a.635.635,0,0,1-.454-.19L15.9,17.694a3.428,3.428,0,0,1-.384-.461l-.958-1.279a8.977,8.977,0,0,1-5.583,1.957h-.03A8.957,8.957,0,0,1,5.077.882,8.933,8.933,0,0,1,15.96,3.4,8.965,8.965,0,0,1,15.9,14.584l1.278.883a3.158,3.158,0,0,1,.55.447l5.11,5.118a.639.639,0,0,1-.025.883l-.895.895A.638.638,0,0,1,21.466,23ZM8.976,2.559a6.4,6.4,0,1,0,6.388,6.4A6.4,6.4,0,0,0,8.976,2.559Z" transform="translate(-0.002 0)" fill="#979797"/>
</svg>
