<svg width="28" height="21" viewBox="0 0 28 21" fill="none" xmlns="http://www.w3.org/2000/svg">
<path d="M21.7699 20.0271H15.9049V14.2141H17.8429C17.9532 14.2161 18.0619 14.1873 18.1568 14.131C18.2517 14.0746 18.329 13.993 18.3801 13.8952C18.4312 13.7974 18.454 13.6873 18.446 13.5772C18.438 13.4672 18.3996 13.3615 18.3349 13.2721L14.5649 8.15509C14.5083 8.07878 14.4347 8.01677 14.3499 7.97405C14.265 7.93133 14.1714 7.90908 14.0764 7.90908C13.9814 7.90908 13.8877 7.93133 13.8029 7.97405C13.7181 8.01677 13.6444 8.07878 13.5879 8.15509L9.81689 13.2681C9.75183 13.3574 9.71302 13.4631 9.70484 13.5733C9.69666 13.6835 9.71943 13.7938 9.77059 13.8918C9.82174 13.9897 9.89925 14.0714 9.99436 14.1277C10.0895 14.1839 10.1984 14.2125 10.3089 14.2101H12.2469V20.0231H5.67789C4.24153 19.8905 2.9061 19.2275 1.93224 18.1634C0.958382 17.0993 0.415977 15.7105 0.410889 14.2681C0.414753 13.3093 0.671975 12.3687 1.15649 11.5413C1.64101 10.714 2.3356 10.0295 3.16989 9.55709C3.01697 9.14912 2.93938 8.71678 2.94089 8.28109C2.9452 7.78843 3.04663 7.30145 3.23937 6.84803C3.43211 6.39462 3.71237 5.98366 4.06413 5.63869C4.41588 5.29372 4.83221 5.0215 5.28929 4.83762C5.74638 4.65374 6.23523 4.56181 6.72789 4.56709C7.17105 4.56545 7.61106 4.64161 8.02789 4.79209C8.75107 3.31524 9.93277 2.11208 11.3964 1.36244C12.86 0.612797 14.5269 0.356931 16.1479 0.63309C17.769 0.90925 19.2571 1.7026 20.39 2.89457C21.5228 4.08653 22.2395 5.61309 22.4329 7.24609C23.9809 7.52152 25.375 8.35274 26.3534 9.58358C27.3318 10.8144 27.827 12.3602 27.7461 13.9304C27.6652 15.5006 27.0136 16.9873 25.9139 18.111C24.8142 19.2348 23.342 19.9183 21.7739 20.0331L21.7699 20.0271Z" fill="#979797"/>
</svg>
