<svg xmlns="http://www.w3.org/2000/svg" xmlns:xlink="http://www.w3.org/1999/xlink" width="57" height="59" viewBox="0 0 57 59">
  <defs>
    <filter id="Ellipse_59" x="0" y="0" width="57" height="59" filterUnits="userSpaceOnUse">
      <feOffset dy="3" input="SourceAlpha"/>
      <feGaussianBlur stdDeviation="3" result="blur"/>
      <feFlood flood-opacity="0.161"/>
      <feComposite operator="in" in2="blur"/>
      <feComposite in="SourceGraphic"/>
    </filter>
  </defs>
  <g id="Group_261" data-name="Group 261" transform="translate(-1066.542 -17.887)">
    <g transform="matrix(1, 0, 0, 1, 1066.54, 17.89)" filter="url(#Ellipse_59)">
      <ellipse id="Ellipse_59-2" data-name="Ellipse 59" cx="19.5" cy="20.5" rx="19.5" ry="20.5" transform="translate(9 6)" fill="#ece6f5"/>
    </g>
    <g id="boss" transform="translate(1085.009 33.451)">
      <path id="Path_380" data-name="Path 380" d="M183.517,302.856V300.15h-6.959v2.706l3.479,3.093Z" transform="translate(-169.986 -287.004)" fill="#e6af78"/>
      <path id="Path_381" data-name="Path 381" d="M45.406,362.116l-4.784-1.126a.769.769,0,0,1-.2-.081l-3.875,2.26-3.724-2.37a.77.77,0,0,1-.352.19l-4.784,1.126a1.546,1.546,0,0,0-1.192,1.505v3.028a.773.773,0,0,0,.773.773H45.825a.773.773,0,0,0,.773-.773v-3.028A1.546,1.546,0,0,0,45.406,362.116Z" transform="translate(-26.495 -344.998)" fill="#eff2fa"/>
      <path id="Path_382" data-name="Path 382" d="M176.558,300.149V303c4.383,1.579,6.959-2.373,6.959-2.373v-.482h-6.959Z" transform="translate(-169.986 -287.004)" fill="#d29b6e"/>
      <path id="Path_383" data-name="Path 383" d="M141.249,97.127l.337,7.412a2.32,2.32,0,0,0,.925,1.75l1.6,1.2a2.32,2.32,0,0,0,1.392.464h1.546a2.319,2.319,0,0,0,1.392-.464l1.6-1.2a2.32,2.32,0,0,0,.925-1.75l.337-7.412Z" transform="translate(-136.223 -92.873)" fill="#f0c087"/>
      <path id="Path_384" data-name="Path 384" d="M145.115,98.672c1.546,0,3.866-.387,4.416-1.546h-8.282l.337,7.412a2.32,2.32,0,0,0,.925,1.75l1.6,1.2a2.32,2.32,0,0,0,1.392.464h.773c-.773,0-2.32-1.546-2.32-3.479V99.832A1.234,1.234,0,0,1,145.115,98.672Z" transform="translate(-136.223 -92.872)" fill="#e6af78"/>
      <g id="Group_250" data-name="Group 250" transform="translate(0 17.664)">
        <path id="Path_385" data-name="Path 385" d="M29.336,405.582l-2.505-2.25a1.543,1.543,0,0,0-.333.958v3.028a.773.773,0,0,0,.773.773h2.706V407.02A1.933,1.933,0,0,0,29.336,405.582Z" transform="translate(-26.498 -403.332)" fill="#e4eaf6"/>
        <path id="Path_386" data-name="Path 386" d="M406.7,405.582l2.505-2.25a1.544,1.544,0,0,1,.333.958v3.028a.773.773,0,0,1-.773.773h-2.706V407.02A1.933,1.933,0,0,1,406.7,405.582Z" transform="translate(-389.439 -403.332)" fill="#e4eaf6"/>
      </g>
      <path id="Path_387" data-name="Path 387" d="M235.867,436.035h-1.933l.242-3.479h1.45Z" transform="translate(-224.849 -413.612)" fill="#5b5d6e"/>
      <path id="Path_388" data-name="Path 388" d="M235.867,414.9h-1.933v.728a.432.432,0,0,0,.432.432h1.068a.432.432,0,0,0,.432-.432V414.9Z" transform="translate(-224.849 -396.731)" fill="#515262"/>
      <g id="Group_251" data-name="Group 251" transform="translate(5.413 14.892)">
        <path id="Path_389" data-name="Path 389" d="M151.184,340.12l3.534,3.18a13.334,13.334,0,0,0-2.211,1.507.5.5,0,0,1-.768-.174l-1.66-3.652.525-.788A.387.387,0,0,1,151.184,340.12Z" transform="translate(-150.078 -340.021)" fill="#e4eaf6"/>
        <path id="Path_390" data-name="Path 390" d="M259.536,340.12,256,343.3a13.333,13.333,0,0,1,2.211,1.507.5.5,0,0,0,.768-.174l1.66-3.652-.525-.788A.386.386,0,0,0,259.536,340.12Z" transform="translate(-251.363 -340.021)" fill="#e4eaf6"/>
      </g>
      <path id="Path_391" data-name="Path 391" d="M309.516,33.4l.362,2.561c1.654.331,1.893,2.927,1.927,3.669a.762.762,0,0,0,.122.378l.631.979a3.7,3.7,0,0,1,.773-2.706S313.672,31.857,309.516,33.4Z" transform="translate(-297.121 -31.711)" fill="#785550"/>
      <path id="Path_392" data-name="Path 392" d="M353.4,186.392l-.436,1.746a.465.465,0,0,1-.451.352h0a.465.465,0,0,1-.461-.407l-.223-1.786a.8.8,0,0,1,.795-.9h0A.8.8,0,0,1,353.4,186.392Z" transform="translate(-337.57 -177.277)" fill="#f0c087"/>
      <path id="Path_393" data-name="Path 393" d="M115.516,1l.572.391a5.78,5.78,0,0,0-2.1,5.183,4.763,4.763,0,0,1,.773,2.706l.773-.773s-.3-2.234,1.16-3.093c1.353-.8,2.537-.387,3.745-.387,3.238,0,4.144-1.22,3.987-2.706-.081-.769-1.257-2.371-4.253-2.32A13.016,13.016,0,0,0,115.516,1Z" transform="translate(-110.12 -0.001)" fill="#694b4b"/>
      <path id="Path_394" data-name="Path 394" d="M115.291,35.049a4.247,4.247,0,0,1,.8-3.3,5.78,5.78,0,0,0-2.1,5.183,4.763,4.763,0,0,1,.773,2.706l.773-.773s-.3-2.234,1.16-3.093c1.353-.8,2.537-.387,3.745-.387a9.5,9.5,0,0,0,1.394-.1C119.338,35.375,117.868,33.487,115.291,35.049Z" transform="translate(-110.12 -30.36)" fill="#5a4146"/>
      <path id="Path_395" data-name="Path 395" d="M123.622,186.392l.436,1.746a.465.465,0,0,0,.451.352h0a.465.465,0,0,0,.461-.407l.223-1.786a.8.8,0,0,0-.795-.9h0A.8.8,0,0,0,123.622,186.392Z" transform="translate(-119.345 -177.277)" fill="#e6af78"/>
      <path id="Path_396" data-name="Path 396" d="M303.231,494.346h-2.706a.387.387,0,0,0-.387.387v.387h3.479v-.387A.387.387,0,0,0,303.231,494.346Z" transform="translate(-288.153 -472.695)" fill="#e4eaf6"/>
    </g>
  </g>
</svg>