<svg xmlns="http://www.w3.org/2000/svg" width="25.421" height="23.833" viewBox="0 0 25.421 23.833">
  <g id="word" transform="translate(0 -15.996)">
    <path id="Path_2357" data-name="Path 2357" d="M267.916,97.481H256.794a.794.794,0,0,1-.794-.794V80.8a.8.8,0,0,1,.794-.794h11.122a.8.8,0,0,1,.794.794V96.687A.794.794,0,0,1,267.916,97.481Z" transform="translate(-243.289 -60.83)" fill="#eceff1"/>
    <g id="Group_273" data-name="Group 273" transform="translate(12.711 22.351)">
      <path id="Path_2358" data-name="Path 2358" d="M264.738,145.593h-7.944a.794.794,0,1,1,0-1.589h7.944a.794.794,0,1,1,0,1.589Z" transform="translate(-256 -144.004)" fill="#1976d2"/>
      <path id="Path_2359" data-name="Path 2359" d="M264.738,209.593h-7.944a.794.794,0,0,1,0-1.589h7.944a.794.794,0,1,1,0,1.589Z" transform="translate(-256 -204.826)" fill="#1976d2"/>
      <path id="Path_2360" data-name="Path 2360" d="M264.738,273.593h-7.944a.794.794,0,1,1,0-1.589h7.944a.794.794,0,1,1,0,1.589Z" transform="translate(-256 -265.649)" fill="#1976d2"/>
      <path id="Path_2361" data-name="Path 2361" d="M264.738,337.593h-7.944a.794.794,0,0,1,0-1.589h7.944a.794.794,0,0,1,0,1.589Z" transform="translate(-256 -326.471)" fill="#1976d2"/>
    </g>
    <path id="Path_2362" data-name="Path 2362" d="M14.012,16.18a.782.782,0,0,0-.653-.17L.648,18.393a.8.8,0,0,0-.648.78V36.65a.793.793,0,0,0,.648.78l12.711,2.383a.76.76,0,0,0,.146.014.794.794,0,0,0,.794-.794V16.79A.789.789,0,0,0,14.012,16.18Z" fill="#1565c0"/>
    <path id="Path_2363" data-name="Path 2363" d="M71.143,184.012a.8.8,0,0,1-.691.7.682.682,0,0,1-.1.006.8.8,0,0,1-.744-.515l-1.64-4.372L66.33,184.2a.794.794,0,0,1-1.53-.168l-.794-5.561a.794.794,0,0,1,1.573-.224l.354,2.485,1.292-3.446a.828.828,0,0,1,1.489,0l1.217,3.244.427-3.848a.795.795,0,1,1,1.579.176Z" transform="translate(-60.82 -152.039)" fill="#fafafa"/>
  </g>
</svg>
