<svg id="chart_bar_4" xmlns="http://www.w3.org/2000/svg" width="24" height="24" viewBox="0 0 24 24">
  <rect id="Bounding_box" data-name="Bounding box" width="24" height="24" fill="rgba(255,255,255,0)"/>
  <path id="Icon_color" data-name="Icon color" d="M15,16H13a1,1,0,0,1-1-1V5a1,1,0,0,1,1-1h2a1,1,0,0,1,1,1V15A1,1,0,0,1,15,16ZM9,16H7a1,1,0,0,1-1-1V1A1,1,0,0,1,7,0H9a1,1,0,0,1,1,1V15A1,1,0,0,1,9,16ZM3,16H1a1,1,0,0,1-1-1V9A1,1,0,0,1,1,8H3A1,1,0,0,1,4,9v6A1,1,0,0,1,3,16Z" transform="translate(4 4)" fill="#364153"/>
</svg>
