<svg xmlns="http://www.w3.org/2000/svg" width="12.61" height="12.609" viewBox="0 0 12.61 12.609">
  <path id="Icon_color" data-name="Icon color" d="M11.98,12.609H.629a.63.63,0,0,1-.561-.914L1.26,9.305a3.136,3.136,0,0,1,2.819-1.74H8.531a3.136,3.136,0,0,1,2.819,1.74l1.192,2.389a.625.625,0,0,1-.026.613A.633.633,0,0,1,11.98,12.609Zm-7.9-3.782a1.881,1.881,0,0,0-1.69,1.046l-.738,1.475h9.308l-.738-1.475a1.881,1.881,0,0,0-1.69-1.046ZM6.3,6.3A3.152,3.152,0,1,1,9.458,3.153,3.156,3.156,0,0,1,6.3,6.3Zm0-5.044A1.891,1.891,0,1,0,8.2,3.153,1.894,1.894,0,0,0,6.3,1.261Z" fill="white"/>
</svg>
