<svg xmlns="http://www.w3.org/2000/svg" width="18" height="18" viewBox="0 0 22 24">
  <path id="Icon_color" data-name="Icon color" d="M19.556,24H2.444A2.489,2.489,0,0,1,0,21.474V5.052A2.489,2.489,0,0,1,2.444,2.526H3.666V.632A.623.623,0,0,1,4.278,0H5.5a.623.623,0,0,1,.612.632V2.526h9.777V.632A.623.623,0,0,1,16.5,0h1.222a.623.623,0,0,1,.612.632V2.526h1.222A2.489,2.489,0,0,1,22,5.052V21.474A2.489,2.489,0,0,1,19.556,24ZM2.444,7.579V21.474H19.556V7.579ZM16.5,17.685H15.278a.623.623,0,0,1-.612-.632V15.79a.623.623,0,0,1,.612-.632H16.5a.623.623,0,0,1,.612.632v1.263A.623.623,0,0,1,16.5,17.685Zm-4.888,0H5.5a.623.623,0,0,1-.612-.632V15.79a.623.623,0,0,1,.612-.632h6.112a.622.622,0,0,1,.611.632v1.263A.622.622,0,0,1,11.612,17.685ZM16.5,12.631H10.388A.622.622,0,0,1,9.778,12V10.736a.622.622,0,0,1,.611-.631H16.5a.622.622,0,0,1,.612.631V12A.622.622,0,0,1,16.5,12.631Zm-9.778,0H5.5A.622.622,0,0,1,4.888,12V10.736a.622.622,0,0,1,.612-.631H6.722a.622.622,0,0,1,.612.631V12A.622.622,0,0,1,6.722,12.631Z" fill="#616161"/>
</svg>
