<svg width="12" height="14" viewBox="0 0 12 14" fill="none" xmlns="http://www.w3.org/2000/svg">
<path d="M2.77589 13.6999C2.43479 13.7022 2.10538 13.5758 1.85331 13.346C1.60125 13.1161 1.44507 12.7998 1.41589 12.4599L0.821893 4.3599H10.3729L9.79289 12.4599C9.76371 12.7999 9.60738 13.1164 9.3551 13.3463C9.10283 13.5761 8.77316 13.7024 8.43189 13.6999H2.77589ZM10.7139 3.0279H0.480893C0.391591 3.0287 0.305601 2.99413 0.241707 2.93174C0.177814 2.86934 0.14121 2.7842 0.139893 2.6949V2.0279C0.140948 1.93843 0.177436 1.85303 0.241358 1.79042C0.30528 1.72781 0.39142 1.6931 0.480893 1.6939H3.55089V1.0269C3.553 0.84805 3.62601 0.67735 3.75389 0.552289C3.88176 0.427228 4.05404 0.358033 4.23289 0.3599H6.96189C7.14006 0.359096 7.31131 0.428762 7.43832 0.553709C7.56533 0.678655 7.63778 0.848748 7.63989 1.0269V1.6939H10.7099C10.7994 1.6931 10.8855 1.72781 10.9494 1.79042C11.0133 1.85303 11.0498 1.93843 11.0509 2.0279V2.6949C11.0496 2.7835 11.0135 2.86804 10.9505 2.93033C10.8875 2.99261 10.8025 3.02765 10.7139 3.0279Z" fill="white"/>
</svg>
