<svg id="ico_24_ui_delete" data-name="ico / 24 / ui / delete" xmlns="http://www.w3.org/2000/svg" width="19" height="19" viewBox="0 0 19 19">
  <rect id="Bounding_box" data-name="Bounding box" width="19" height="19" fill="rgba(255,255,255,0)"/>
  <path id="Icon_color" data-name="Icon color" d="M2.657,15a1.435,1.435,0,0,1-1.371-1.395L.687,4.5h9.625l-.585,9.105A1.435,1.435,0,0,1,8.357,15h-5.7Zm8-12H.344A.361.361,0,0,1,0,2.625v-.75A.361.361,0,0,1,.344,1.5H3.438V.75A.722.722,0,0,1,4.125,0h2.75a.722.722,0,0,1,.687.75V1.5h3.094A.361.361,0,0,1,11,1.875v.75A.361.361,0,0,1,10.656,3Z" transform="translate(4 2)" fill="#1d1d1d"/>
</svg>
