<svg id="ico_24_ui_delete" data-name="ico / 24 / ui / delete" xmlns="http://www.w3.org/2000/svg" width="16" height="16" viewBox="0 0 16 16">
  <rect id="Bounding_box" data-name="Bounding box" width="16" height="16" fill="rgba(255,255,255,0)"/>
  <path id="Icon_color" data-name="Icon color" d="M1.932,12a1.1,1.1,0,0,1-1-1.116L.5,3.6h7l-.425,7.284a1.1,1.1,0,0,1-1,1.116H1.932ZM7.75,2.4H.25A.279.279,0,0,1,0,2.1V1.5a.279.279,0,0,1,.25-.3H2.5V.6A.557.557,0,0,1,3,0H5a.557.557,0,0,1,.5.6v.6H7.75A.279.279,0,0,1,8,1.5v.6A.279.279,0,0,1,7.75,2.4Z" transform="translate(4 2)" fill="#e36d66"/>
</svg>
