<svg id="email" xmlns="http://www.w3.org/2000/svg" width="11.593" height="8.831" viewBox="0 0 11.593 8.831">
  <g id="Group_271" data-name="Group 271" transform="translate(0 0)">
    <path id="Path_2335" data-name="Path 2335" d="M10.574,61H1.019A1.021,1.021,0,0,0,0,62.019v6.793a1.021,1.021,0,0,0,1.019,1.019h9.555a1.021,1.021,0,0,0,1.019-1.019V62.019A1.021,1.021,0,0,0,10.574,61Zm-.141.679L5.818,66.295,1.163,61.679ZM.679,68.671V62.156L3.951,65.4Zm.48.48,3.273-3.273L5.58,67.015a.34.34,0,0,0,.479,0L7.178,65.9l3.256,3.256Zm9.754-.48L7.658,65.415l3.256-3.256Z" transform="translate(0 -61)" fill="#ece6f5"/>
  </g>
</svg>
