<svg xmlns="http://www.w3.org/2000/svg" width="24.07" height="24.073" viewBox="0 0 24.07 24.073">
  <g id="business" transform="translate(-0.034)">
    <path id="Path_2217" data-name="Path 2217" d="M11.364,3.088v7.856L6.429,8.477.034,11.648V24.073H24.1V3.086L17.709,0ZM7.133,22.662H5.722v-1.41h1.41Zm1.41,0V19.842H4.312v2.821H1.444V12.522l4.982-2.47,4.937,2.469V22.662Zm9.872,0H17v-1.41h1.41ZM22.693,3.972V22.662H19.826V19.842H15.595v2.821H12.774V3.97l4.937-2.4Z" fill="#616161"/>
    <path id="Path_2218" data-name="Path 2218" d="M301.034,122.069h1.41v1.41h-1.41Z" transform="translate(-286.85 -116.33)" fill="#616161"/>
    <path id="Path_2219" data-name="Path 2219" d="M421.034,122.069h1.41v1.41h-1.41Z" transform="translate(-401.208 -116.33)" fill="#616161"/>
    <path id="Path_2220" data-name="Path 2220" d="M361.034,122.069h1.41v1.41h-1.41Z" transform="translate(-344.029 -116.33)" fill="#616161"/>
    <path id="Path_2221" data-name="Path 2221" d="M301.034,182.069h1.41v1.41h-1.41Z" transform="translate(-286.85 -173.51)" fill="#616161"/>
    <path id="Path_2222" data-name="Path 2222" d="M361.034,182.069h1.41v1.41h-1.41Z" transform="translate(-344.029 -173.51)" fill="#616161"/>
    <path id="Path_2223" data-name="Path 2223" d="M421.034,182.069h1.41v1.41h-1.41Z" transform="translate(-401.208 -173.51)" fill="#616161"/>
    <path id="Path_2224" data-name="Path 2224" d="M301.034,242.069h1.41v1.41h-1.41Z" transform="translate(-286.85 -230.689)" fill="#616161"/>
    <path id="Path_2225" data-name="Path 2225" d="M421.034,242.069h1.41v1.41h-1.41Z" transform="translate(-401.208 -230.689)" fill="#616161"/>
    <path id="Path_2226" data-name="Path 2226" d="M361.034,242.069h1.41v1.41h-1.41Z" transform="translate(-344.029 -230.689)" fill="#616161"/>
    <path id="Path_2227" data-name="Path 2227" d="M301.034,302.069h1.41v1.41h-1.41Z" transform="translate(-286.85 -287.868)" fill="#616161"/>
    <path id="Path_2228" data-name="Path 2228" d="M361.034,302.069h1.41v1.41h-1.41Z" transform="translate(-344.029 -287.868)" fill="#616161"/>
    <path id="Path_2229" data-name="Path 2229" d="M421.034,302.069h1.41v1.41h-1.41Z" transform="translate(-401.208 -287.868)" fill="#616161"/>
    <path id="Path_2230" data-name="Path 2230" d="M301.034,362.069h1.41v1.41h-1.41Z" transform="translate(-286.85 -345.048)" fill="#616161"/>
    <path id="Path_2231" data-name="Path 2231" d="M421.034,362.069h1.41v1.41h-1.41Z" transform="translate(-401.208 -345.048)" fill="#616161"/>
    <path id="Path_2232" data-name="Path 2232" d="M361.034,362.069h1.41v1.41h-1.41Z" transform="translate(-344.029 -345.048)" fill="#616161"/>
    <path id="Path_2233" data-name="Path 2233" d="M61.034,302.069h1.41v1.41h-1.41Z" transform="translate(-58.132 -287.868)" fill="#616161"/>
    <path id="Path_2234" data-name="Path 2234" d="M121.034,302.069h1.41v1.41h-1.41Z" transform="translate(-115.312 -287.868)" fill="#616161"/>
    <path id="Path_2235" data-name="Path 2235" d="M181.034,302.069h1.41v1.41h-1.41Z" transform="translate(-172.491 -287.868)" fill="#616161"/>
    <path id="Path_2236" data-name="Path 2236" d="M61.034,362.069h1.41v1.41h-1.41Z" transform="translate(-58.132 -345.048)" fill="#616161"/>
    <path id="Path_2237" data-name="Path 2237" d="M181.034,362.069h1.41v1.41h-1.41Z" transform="translate(-172.491 -345.048)" fill="#616161"/>
    <path id="Path_2238" data-name="Path 2238" d="M121.034,362.069h1.41v1.41h-1.41Z" transform="translate(-115.312 -345.048)" fill="#616161"/>
  </g>
</svg>
