<svg id="insert-picture-icon" xmlns="http://www.w3.org/2000/svg" width="209.016" height="195.934" viewBox="0 0 209.016 195.934">
  <path id="Path_2242" data-name="Path 2242" d="M185.388,9.35H23.64A23.664,23.664,0,0,0,0,33V181.658a23.651,23.651,0,0,0,23.64,23.626H185.387a23.642,23.642,0,0,0,23.629-23.626V33A23.653,23.653,0,0,0,185.388,9.35ZM135.161,44.525a22.834,22.834,0,1,1-22.834,22.834A22.837,22.837,0,0,1,135.161,44.525Zm42.813,138.906H34.312c-6.306,0-9.115-4.563-6.272-10.192L67.227,95.623C70.066,90,75.477,89.493,79.309,94.5l39.4,51.494a9.66,9.66,0,0,0,14.963.947l9.64-9.761a9.176,9.176,0,0,1,14.572,1.233l24.961,35.655C186.457,179.241,184.28,183.431,177.974,183.431Z" transform="translate(0 -9.35)" fill="#364153"/>
</svg>
