<svg xmlns="http://www.w3.org/2000/svg" width="20" height="20" viewBox="0 0 20 20">
  <path id="Icon_color" data-name="Icon color" d="M18.889,20H12.222a1.112,1.112,0,0,1-1.111-1.111V14.444a1.112,1.112,0,0,1,1.111-1.111h6.667A1.112,1.112,0,0,1,20,14.444v4.445A1.112,1.112,0,0,1,18.889,20Zm-5.557-4.444v2.222h4.445V15.556ZM7.778,20H1.111A1.112,1.112,0,0,1,0,18.889V10A1.112,1.112,0,0,1,1.111,8.889H7.778A1.112,1.112,0,0,1,8.889,10v8.889A1.112,1.112,0,0,1,7.778,20ZM2.222,11.111v6.666H6.667V11.111Zm16.667,0H12.222A1.112,1.112,0,0,1,11.111,10V1.111A1.112,1.112,0,0,1,12.222,0h6.667A1.112,1.112,0,0,1,20,1.111V10A1.112,1.112,0,0,1,18.889,11.111ZM13.333,2.222V8.889h4.444V2.222ZM7.778,6.667H1.111A1.112,1.112,0,0,1,0,5.556V1.111A1.112,1.112,0,0,1,1.111,0H7.778A1.112,1.112,0,0,1,8.889,1.111V5.556A1.113,1.113,0,0,1,7.778,6.667ZM2.222,2.222V4.444H6.667V2.222Z" fill="#364153"/>
</svg>
