<svg id="insert-picture-icon" xmlns="http://www.w3.org/2000/svg" width="12.271" height="11.503" viewBox="0 0 12.271 11.503">
  <path id="Path_2242" data-name="Path 2242" d="M10.884,9.35h-9.5A1.389,1.389,0,0,0,0,10.739v8.728a1.389,1.389,0,0,0,1.388,1.387h9.5a1.388,1.388,0,0,0,1.387-1.387V10.739A1.389,1.389,0,0,0,10.884,9.35ZM7.935,11.415a1.341,1.341,0,1,1-1.341,1.341A1.341,1.341,0,0,1,7.935,11.415Zm2.514,8.155H2.014a.379.379,0,0,1-.368-.6l2.3-4.557a.387.387,0,0,1,.709-.066L6.97,17.372a.567.567,0,0,0,.879.056l.566-.573a.539.539,0,0,1,.856.072l1.465,2.093C10.947,19.324,10.819,19.57,10.449,19.57Z" transform="translate(0 -9.35)" fill="#364153"/>
</svg>
