<svg xmlns="http://www.w3.org/2000/svg" width="46.002" height="32" viewBox="0 0 46.002 32">
  <path id="Icon_color" data-name="Icon color" d="M43.7,32H23a2.3,2.3,0,0,1-1.954-1.09,2.267,2.267,0,0,1-.093-2.226l2.3-4.343a6.888,6.888,0,0,1,6.05-3.771h8.1a6.87,6.87,0,0,1,6.164,3.771l2.186,4.343a2.257,2.257,0,0,1-.093,2.226A2.323,2.323,0,0,1,43.7,32ZM16.511,32H2.294A2.3,2.3,0,0,1,.34,30.91a2.268,2.268,0,0,1-.093-2.226l3.312-6.605a6.871,6.871,0,0,1,6.172-3.793H22.447a11.311,11.311,0,0,0-3.428,4.022l-2.186,4.32A6.866,6.866,0,0,0,16.51,32ZM33.353,16H33.33a5.78,5.78,0,0,1-4.051-1.668A5.767,5.767,0,1,1,33.353,16ZM16.1,13.715A6.858,6.858,0,1,1,23,6.856,6.889,6.889,0,0,1,16.1,13.715Z" transform="translate(0.001)" fill="#e91515"/>
</svg>
