<svg xmlns="http://www.w3.org/2000/svg" width="42.001" height="42.003" viewBox="0 0 42.001 42.003">
  <path id="Icon_color" data-name="Icon color" d="M34.228,42H32.666a23.584,23.584,0,0,1-11.155-2.87l-1.05-.584a41.873,41.873,0,0,1-17.1-17.1L2.776,20.4A23.608,23.608,0,0,1,0,9.338V7.776A4.7,4.7,0,0,1,1.378,4.462L5.319.519A1.744,1.744,0,0,1,6.564,0,1.741,1.741,0,0,1,8.072.869l5.25,9.006A2.334,2.334,0,0,1,12.95,12.7l-4.41,4.41a1.161,1.161,0,0,0-.21,1.377l.817,1.539A31.468,31.468,0,0,0,21.98,32.833l1.539.84a1.169,1.169,0,0,0,1.378-.21l4.41-4.41a2.312,2.312,0,0,1,1.653-.688,2.336,2.336,0,0,1,1.169.314l9.006,5.25a1.752,1.752,0,0,1,.351,2.753l-3.944,3.943A4.707,4.707,0,0,1,34.228,42Zm6.625-23.379H38.5a1.174,1.174,0,0,1-1.165-1.073A14,14,0,0,0,24.451,4.672,1.164,1.164,0,0,1,23.332,3.5V1.172a1.2,1.2,0,0,1,.351-.863A1.231,1.231,0,0,1,24.5,0a1.143,1.143,0,0,1,.12.006A18.663,18.663,0,0,1,42,17.387a1.242,1.242,0,0,1-.3.888A1.2,1.2,0,0,1,40.854,18.623Zm-9.363,0H29.124A1.144,1.144,0,0,1,28,17.691a4.645,4.645,0,0,0-3.732-3.664,1.139,1.139,0,0,1-.934-1.142V10.552a1.167,1.167,0,0,1,.4-.886h.046a1.208,1.208,0,0,1,.832-.332c.034,0,.069,0,.1,0a9.446,9.446,0,0,1,7.931,7.956,1.209,1.209,0,0,1-.279.932A1.152,1.152,0,0,1,31.49,18.623Z" fill="#4c9f23"/>
</svg>
