<svg id="cloud-computing" xmlns="http://www.w3.org/2000/svg" width="27.336" height="19.509" viewBox="0 0 27.336 19.509">
  <g id="Group_270" data-name="Group 270" transform="translate(0 0)">
    <path id="Path_2309" data-name="Path 2309" d="M21.359,86.159H15.494V80.346h1.938a.594.594,0,0,0,.492-.942l-3.77-5.117a.608.608,0,0,0-.977,0L9.406,79.4a.593.593,0,0,0,.492.942h1.938v5.813H5.267A5.8,5.8,0,0,1,0,80.4a5.439,5.439,0,0,1,2.759-4.711,3.6,3.6,0,0,1-.229-1.276,3.747,3.747,0,0,1,3.787-3.714,3.787,3.787,0,0,1,1.3.225,7.617,7.617,0,0,1,14.405,2.454,6.452,6.452,0,0,1-.659,12.787Z" transform="translate(0 -66.65)" fill="#979797"/>
  </g>
</svg>
