<svg xmlns="http://www.w3.org/2000/svg" width="11.355" height="11.363" viewBox="0 0 11.355 11.363">
  <path id="Icon_color" data-name="Icon color" d="M10.788,11.363H.566a.568.568,0,0,1-.505-.824L1.135,8.386A2.824,2.824,0,0,1,3.673,6.818H7.682a2.824,2.824,0,0,1,2.538,1.568l1.073,2.153a.564.564,0,0,1-.023.553A.57.57,0,0,1,10.788,11.363ZM3.673,7.954A1.694,1.694,0,0,0,2.151,8.9l-.664,1.329H9.869L9.2,8.9a1.693,1.693,0,0,0-1.522-.943Zm2-2.273a2.841,2.841,0,1,1,2.839-2.84A2.843,2.843,0,0,1,5.677,5.681Zm0-4.545a1.7,1.7,0,1,0,1.7,1.7A1.706,1.706,0,0,0,5.677,1.136Z" fill="#364153"/>
</svg>
